<svg version="1.1" viewBox="0 0 16 16" xmlns="http://www.w3.org/2000/svg">
 <path d="m2.25 0c-0.1384999 0-0.25 0.11150014-0.25 0.25v3.5c0 0.1384999 0.1115001 0.25 0.25 0.25h3.5c0.1384999 0 0.25-0.1115001 0.25-0.25v-3.5c0-0.13849986-0.1115001-0.25-0.25-0.25h-3.5zm0.75 6v5 4h2 1 2 1v-2h-1-2-1v-2-2h3 1v-2h-1-3v-1h-2zm8.25 0c-0.1385 0-0.25 0.1115001-0.25 0.25v3.5c0 0.1384999 0.1115 0.25 0.25 0.25h3.5c0.1385 0 0.25-0.1115001 0.25-0.25v-3.5c0-0.1384999-0.1115-0.25-0.25-0.25h-3.5zm0 6c-0.1385 0-0.25 0.1115-0.25 0.25v3.5c0 0.1385 0.1115 0.25 0.25 0.25h3.5c0.1385 0 0.25-0.1115 0.25-0.25v-3.5c0-0.1385-0.1115-0.25-0.25-0.25h-3.5z" style="fill-rule:evenodd;fill:#444;stroke-width:.99329"/>
</svg>
