<svg version="1.1" viewBox="0 0 16 16" xmlns="http://www.w3.org/2000/svg">
 <path d="m10.999753 6a1.9997526 2 0 0 0-1.732208 1 1.9997526 2 0 0 0 0 2 1.9997526 2 0 0 0 1.732208 1h1.999752a1.9997526 2 0 0 0 1.732208-1 1.9997526 2 0 0 0 0-2 1.9997526 2 0 0 0-1.732208-1z" style="fill-rule:evenodd;fill:#444;stroke-width:.993229"/>
 <path d="m11.000124 12a1.9997526 2 0 0 0-1.732208 1 1.9997526 2 0 0 0 0 2 1.9997526 2 0 0 0 1.732208 1h1.999752a1.9997526 2 0 0 0 1.732208-1 1.9997526 2 0 0 0 0-2 1.9997526 2 0 0 0-1.732208-1z" style="fill-rule:evenodd;fill:#444;stroke-width:.993229"/>
 <path d="M 3.0001237,3.4442265e-8 A 1.9997526,2 0 0 0 1.2679161,1 a 1.9997526,2 0 0 0 0,2 1.9997526,2 0 0 0 1.7322076,0.9999996 H 4.9998762 A 1.9997526,2 0 0 0 6.732084,3 a 1.9997526,2 0 0 0 0,-2 A 1.9997526,2 0 0 0 4.9998762,3.4442265e-8 Z" style="fill-rule:evenodd;fill:#444;stroke-width:.993229"/>
 <path d="m3 5v7a3 3 0 0 0 0.8789062 2.121094 3 3 0 0 0 2.1210938 0.878906h2v-2h-2a1 1 0 0 1-1-1v-3h3v-2h-3v-2z" style="fill-rule:evenodd;fill:#444;stroke-width:.99329"/>
</svg>
