<svg version="1.1" viewBox="0 0 16 16" xmlns="http://www.w3.org/2000/svg">
 <path d="m8 1a6 3 0 0 0-6 3 6 3 0 0 0 6 3 6 3 0 0 0 6-3 6 3 0 0 0-6-3zm-5.4433594 5.75a6 3 0 0 0-0.5566406 1.25 6 3 0 0 0 6 3 6 3 0 0 0 6-3 6 3 0 0 0-0.552734-1.2441406 6 3 0 0 1-5.447266 1.7441406 6 3 0 0 1-5.4433594-1.75zm0 4a6 3 0 0 0-0.5566406 1.25 6 3 0 0 0 6 3 6 3 0 0 0 6-3 6 3 0 0 0-0.552734-1.244141 6 3 0 0 1-5.447266 1.744141 6 3 0 0 1-5.4433594-1.75z" style="fill-rule:evenodd;fill:#444;stop-color:#000000;stroke-width:2.19818"/>
</svg>
