<svg version="1.1" viewBox="0 0 16 16" xmlns="http://www.w3.org/2000/svg">
 <path d="m3 0c-1.648438 0-3 1.351562-3 3 0 1.296875 0.839844 2.410156 2 2.824219v5.175781c0 1.644531 1.355469 3 3 3h0.585938l-0.292969 0.292969c-0.390625 0.390625-0.390625 1.023437 0 1.414062s1.023437 0.390625 1.414062 0l2-2c0.390625-0.390625 0.390625-1.023437 0-1.414062l-2-2c-0.1875-0.1875-0.441406-0.292969-0.707031-0.292969s-0.519531 0.105469-0.707031 0.292969c-0.390625 0.390625-0.390625 1.023437 0 1.414062l0.292969 0.292969h-0.585938c-0.5625 0-1-0.4375-1-1v-5.175781c1.160156-0.414063 2-1.527344 2-2.824219 0-1.648438-1.351562-3-3-3zm7 0c-0.265625 0-0.519531 0.105469-0.707031 0.292969l-2 2c-0.390625 0.390625-0.390625 1.023437 0 1.414062l2 2c0.390625 0.390625 1.023437 0.390625 1.414062 0s0.390625-1.023437 0-1.414062l-0.292969-0.292969h0.585938c0.5625 0 1 0.4375 1 1v5.175781c-1.160156 0.414063-2 1.527344-2 2.824219 0 1.648438 1.351562 3 3 3s3-1.351562 3-3c0-1.296875-0.839844-2.410156-2-2.824219v-5.175781c0-1.644531-1.355469-3-3-3h-0.585938l0.292969-0.292969c0.390625-0.390625 0.390625-1.023437 0-1.414062-0.1875-0.1875-0.441406-0.292969-0.707031-0.292969zm-7 1.5c0.828125 0 1.5 0.671875 1.5 1.5s-0.671875 1.5-1.5 1.5-1.5-0.671875-1.5-1.5 0.671875-1.5 1.5-1.5zm10 10c0.828125 0 1.5 0.671875 1.5 1.5s-0.671875 1.5-1.5 1.5-1.5-0.671875-1.5-1.5 0.671875-1.5 1.5-1.5z" fill="#222" style="fill:#444"/>
</svg>
