<svg version="1.1" viewBox="0 0 16 16" xmlns="http://www.w3.org/2000/svg">
 <g transform="matrix(.15308816 0 0 .14721036 .72042112 1)" style="fill:#09a576">
  <g style="fill:#09a576">
   <g style="fill:#09a576">
    <g style="fill:#09a576">
     <g style="fill:#09a576">
      <g style="fill:#09a576">
       <path d="m47.564305 0c-21.632978 0-39.180344 6.3991899-39.180344 14.289182v11.715272c0 7.890992 17.547366 14.275914 39.180344 14.275914 21.631979 0 39.167587-6.385922 39.167587-14.275914v-11.715272c0-7.8899921-17.535608-14.289182-39.167587-14.289182zm-39.205861 37.361501c-0.0709999 0.353 0.0255164 15.881291 0.0255164 15.881291 0 7.891992 17.547366 14.289182 39.180344 14.289182 21.631979 0 39.167587-6.39919 39.167587-14.289182 0 0 0.082758-15.529291 0.012758-15.881291-1.490998 7.395993-18.540123 13.586-39.193103 13.586-20.653979 0-37.704104-6.191007-39.193103-13.586zm0 27.172001 0.0255164 16.292586c0 7.890992 17.547366 14.275914 39.180344 14.275914 21.631979 0 39.167587-6.386922 39.167587-14.275914l0.012758-16.292586c-1.487998 7.390992-18.539123 13.586-39.193103 13.586-20.653979 0-37.704104-6.196008-39.193103-13.586z" style="fill:#444"/>
      </g>
     </g>
    </g>
   </g>
  </g>
 </g>
</svg>
