<svg version="1.1" viewBox="0 0 16 16" xmlns="http://www.w3.org/2000/svg">
 <path d="m2 9h2c0.429688 0 0.8125-0.277344 0.949219-0.683594l2-6-1.914063-0.054687 3 11c0.113282 0.417969 0.476563 0.710937 0.90625 0.738281 0.429688 0.023438 0.828125-0.230469 0.988282-0.628906l2-5-0.929688 0.628906h3c0.550781 0 1-0.449219 1-1s-0.449219-1-1-1h-3c-0.410156 0-0.777344 0.25-0.929688 0.628906l-2 5 1.894532 0.109375-3-11c-0.117188-0.425781-0.496094-0.726562-0.9375-0.738281s-0.835938 0.265625-0.976563 0.683594l-2 6 0.949219-0.683594h-2c-0.550781 0-1 0.449219-1 1s0.449219 1 1 1z" fill="#222" style="fill:#444"/>
</svg>
