<svg version="1.1" viewBox="0 0 16 16" xmlns="http://www.w3.org/2000/svg">
 <g fill="#222" style="fill:#444">
  <path d="m2.683594 9.769531c-1.570313-0.542969-2.683594-2.039062-2.683594-3.777343 0-2.199219 1.800781-4 4-4h3c2.199219 0 4 1.800781 4 4 0 1.640624-0.996094 3.070312-2.421875 3.679687l-0.785156-1.839844c0.710937-0.304687 1.207031-1 1.207031-1.839843 0-1.125-0.875-2-2-2h-3c-1.125 0-2 0.875-2 2 0 0.890624 0.558594 1.621093 1.339844 1.890624z" style="fill:#444"/>
  <path d="m8 13.992188c-2.199219 0-4-1.800782-4-4 0-1.621094 0.964844-3.03125 2.367188-3.65625l0.816406 1.828124c-0.699219 0.3125-1.183594 1-1.183594 1.828126 0 1.125 0.875 2 2 2h3c1.125 0 2-0.875 2-2 0-0.867188-0.53125-1.582032-1.277344-1.867188l0.714844-1.867188c1.503906 0.574219 2.5625 2.039063 2.5625 3.734376 0 2.199218-1.800781 4-4 4z" style="fill:#444"/>
 </g>
</svg>
