<svg version="1.1" viewBox="0 0 16 16" xmlns="http://www.w3.org/2000/svg">
 <path class="error" d="M 8 1 A 7 7 0 0 0 1 8 A 7 7 0 0 0 8 15 A 7 7 0 0 0 15 8 A 7 7 0 0 0 8 1 z M 8 3 C 9.6000001 3 11 3.9993513 11 5.9160156 L 11 7 L 11.333984 7 C 11.657204 7 12 7.3660045 12 7.7617188 L 12 11.285156 C 12 11.68087 11.703318 12 11.333984 12 L 4.6660156 12 C 4.2966823 12 4 11.68087 4 11.285156 L 4 7.7617188 C 4 7.3660044 4.2966823 7 4.6660156 7 L 5 7 L 5 5.9160156 C 5 3.9993513 6.4 3 8 3 z M 8 4 C 7.2 4 6 4.563337 6 5.9160156 L 6 7 L 10 7 L 10 5.9160156 C 10 4.5498156 8.8000001 4 8 4 z " style="fill:#f44336"/>
</svg>
