<svg version="1.1" viewBox="0 0 16 16" xmlns="http://www.w3.org/2000/svg">
 <path d="m4 2c-0.9082034 0-2 1.0917966-2 2v1c0 0.9082034 1.0917966 2 2 2h1c0.9082034 0 2-1.0917966 2-2v-1c0-0.9082034-1.0917966-2-2-2z" style="fill:#444;stroke-width:.833333"/>
 <path d="m4 9c-0.9082034 0-2 1.091797-2 2v1c0 0.908203 1.0917966 2 2 2h1c0.9082034 0 2-1.091797 2-2v-1c0-0.908203-1.0917966-2-2-2z" style="fill:#444;stroke-width:.833333"/>
 <path d="m11 2c-0.908204 0-2 1.0917966-2 2v1c0 0.9082034 1.091796 2 2 2h1c0.908203 0 2-1.0917966 2-2v-1c0-0.9082034-1.091797-2-2-2z" style="fill:#444;stroke-width:.833333"/>
 <path d="m11 9c-0.908203 0-2 1.091797-2 2v1c0 0.908203 1.091797 2 2 2h1c0.908203 0 2-1.091797 2-2v-1c0-0.908203-1.091797-2-2-2z" style="fill:#444;stroke-width:.833333"/>
</svg>
