<svg version="1.1" viewBox="0 0 16 16" xmlns="http://www.w3.org/2000/svg">
 <path d="m3 1c-1.089844 0-2 0.910156-2 2v2c0 1.089844 0.910156 2 2 2h2c1.089844 0 2-0.910156 2-2v-2c0-1.089844-0.910156-2-2-2zm8 0c-1.089844 0-2 0.910156-2 2v2c0 1.089844 0.910156 2 2 2h2c1.089844 0 2-0.910156 2-2v-2c0-1.089844-0.910156-2-2-2zm-8 8c-1.089844 0-2 0.910156-2 2v2c0 1.089844 0.910156 2 2 2h2c1.089844 0 2-0.910156 2-2v-2c0-1.089844-0.910156-2-2-2zm8 0c-1.089844 0-2 0.910156-2 2v2c0 1.089844 0.910156 2 2 2h2c1.089844 0 2-0.910156 2-2v-2c0-1.089844-0.910156-2-2-2z" fill="#222" style="fill:#444"/>
</svg>
