<svg version="1.1" viewBox="0 0 16 16" xmlns="http://www.w3.org/2000/svg">
 <defs>
  <style type="text/css">.ColorScheme-Text { color:#444444; } .ColorScheme-Highlight { color:#4285f4; } .ColorScheme-NeutralText { color:#ff9800; } .ColorScheme-PositiveText { color:#4caf50; } .ColorScheme-NegativeText { color:#f44336; }</style>
 </defs>
 <path d="m4 2a2 2 0 0 0-2 2 2 2 0 0 0 1 1.7324219v6.2675781c0 1 1 1 1 1h2v1l2-2-2-2v1h-1v-5.2675781a2 2 0 0 0 1-1.7324219 2 2 0 0 0-2-2zm6 0-2 2 2 2v-1h1v5.267578a2 2 0 0 0-1 1.732422 2 2 0 0 0 2 2 2 2 0 0 0 2-2 2 2 0 0 0-1-1.732422v-6.267578c0-1-1-1-1-1h-2v-1z" style="fill:#444"/>
</svg>
