<svg version="1.1" viewBox="0 0 16 16" xmlns="http://www.w3.org/2000/svg">
 <path d="m8 0c-4.410156 0-8 3.589844-8 8s3.589844 8 8 8 8-3.589844 8-8-3.589844-8-8-8zm0 2c3.332031 0 6 2.667969 6 6s-2.667969 6-6 6-6-2.667969-6-6 2.667969-6 6-6zm0 1.875c-0.621094 0-1.125 0.503906-1.125 1.125s0.503906 1.125 1.125 1.125 1.125-0.503906 1.125-1.125-0.503906-1.125-1.125-1.125zm-1.523438 3.125c-0.265624 0.011719-0.476562 0.230469-0.476562 0.5 0 0.277344 0.222656 0.5 0.5 0.5h0.5v3h-0.5c-0.277344 0-0.5 0.222656-0.5 0.5s0.222656 0.5 0.5 0.5h3c0.277344 0 0.5-0.222656 0.5-0.5s-0.222656-0.5-0.5-0.5h-0.5v-4h-2.5-0.023438z" fill="#222" style="fill:#444"/>
</svg>
