<svg version="1.1" viewBox="0 0 16 16" xmlns="http://www.w3.org/2000/svg">
 <defs>
  <style type="text/css">.ColorScheme-Text { color:#444444; } .ColorScheme-Highlight { color:#4285f4; } .ColorScheme-NeutralText { color:#ff9800; } .ColorScheme-PositiveText { color:#4caf50; } .ColorScheme-NegativeText { color:#f44336; }</style>
 </defs>
 <path class="ColorScheme-Text" d="m8 1v11h3.666c1.847 0 3.334-1.513 3.334-3.5 0-1.9867-1.487-3.5-3.334-3.5h-1.666v-4zm3.334 6c0.923 0 1.666 0.6648 1.666 1.5 0 0.836-0.743 1.5-1.666 1.5h-1.334v-3z" style="fill:currentColor"/>
 <path class="ColorScheme-Text" d="m2 4v2h3v1h-1c-1.662 0-3 1.115-3 2.5s1.338 2.5 3 2.5h3v-6c0-1.108-0.892-2-2-2zm1.5 5h1.5v1h-1.5c-0.277 0-0.5-0.223-0.5-0.5s0.223-0.5 0.5-0.5z" style="fill:currentColor"/>
 <path d="m0.12695312 12a4 4 0 0 0 3.8730469 3h8a4 4 0 0 0 3.873047-3h-2.140625a2 2 0 0 1-1.732422 1h-8a2 2 0 0 1-1.7324219-1h-2.140625z" style="fill-rule:evenodd;fill:#444;stroke-width:1.71443"/>
</svg>
