<svg version="1.1" viewBox="0 0 16 16" xmlns="http://www.w3.org/2000/svg">
 <defs>
  <style type="text/css">.ColorScheme-Text { color:#444444; } .ColorScheme-Highlight { color:#4285f4; } .ColorScheme-NeutralText { color:#ff9800; } .ColorScheme-PositiveText { color:#4caf50; } .ColorScheme-NegativeText { color:#f44336; }</style>
 </defs>
 <path class="ColorScheme-NeutralText warning" d="m16 13.5a1.5 1.5 0 0 1-1.5 1.5 1.5 1.5 0 0 1-1.5-1.5 1.5 1.5 0 0 1 1.5-1.5 1.5 1.5 0 0 1 1.5 1.5z" style="fill:currentColor"/>
 <path class="ColorScheme-Text" d="m8 1c-1.825 1.725-5 3-6 3.25 0 4.75 2.25 10 6 10.75 3.75-0.75 6-6 6-10.75-1-0.25-4.175-1.525-6-3.25zm0 3a1 1 0 0 1 1 1 1 1 0 0 1-1 1 1 1 0 0 1-1-1 1 1 0 0 1 1-1zm-2 3h1 2v5h-2v-4h-1v-1z" style="fill:currentColor"/>
</svg>
