<svg version="1.1" viewBox="0 0 16 16" xmlns="http://www.w3.org/2000/svg">
 <g fill="#222" style="fill:#444">
  <path d="m9.492188 0.140625c-0.851563-0.1640625-1.722657-0.1835938-2.574219-0.0664062-1.699219 0.2304692-3.328125 1.0078122-4.601563 2.2929692-2.546875 2.566406-3.050781 6.539062-1.230468 9.664062 1.824218 3.121094 5.527343 4.636719 9.019531 3.683594 3.488281-0.949219 5.90625-4.132813 5.890625-7.75 0-0.550782-0.453125-1-1.003906-0.996094-0.550782 0.003906-0.996094 0.453125-0.996094 1.003906 0.015625 2.722656-1.792969 5.097656-4.417969 5.816406-2.625 0.714844-5.394531-0.417968-6.761719-2.765624-1.371094-2.351563-0.996094-5.316407 0.921875-7.25 1.914063-1.929688 4.875-2.335938 7.238281-0.984376 0.476563 0.273438 1.089844 0.109376 1.363282-0.371093 0.273437-0.480469 0.105468-1.089844-0.375-1.367188-0.78125-0.445312-1.617188-0.75-2.472656-0.910156z" style="fill:#444"/>
  <path d="m15.753906 3.65625c0.175782-0.199219 0.261719-0.460938 0.246094-0.722656-0.019531-0.265625-0.140625-0.511719-0.339844-0.6875-0.199218-0.175782-0.460937-0.265625-0.726562-0.246094-0.265625 0.015625-0.511719 0.140625-0.6875 0.339844l-6.296875 7.195312-2.242188-2.246094c-0.390625-0.390624-1.023437-0.390624-1.414062 0-0.1875 0.1875-0.292969 0.445313-0.292969 0.710938s0.105469 0.519531 0.292969 0.707031l3 3c0.195312 0.195313 0.464843 0.300781 0.742187 0.292969 0.277344-0.011719 0.535156-0.132812 0.71875-0.34375z" style="fill:#444"/>
 </g>
</svg>
